<?xml version="1.0" standalone="no"?>
<!DOCTYPE svg PUBLIC "-//W3C//DTD SVG 20010904//EN"
 "http://www.w3.org/TR/2001/REC-SVG-20010904/DTD/svg10.dtd">
<svg version="1.0" xmlns="http://www.w3.org/2000/svg"
 width="640.000000pt" height="480.000000pt" viewBox="0 0 640.000000 480.000000"
 preserveAspectRatio="xMidYMid meet">

<g transform="translate(0.000000,480.000000) scale(0.100000,-0.100000)"
fill="#000000" stroke="none">
<path d="M3765 4433 c-30 -12 -90 -17 -235 -19 -107 -2 -257 -9 -332 -14 -76
-6 -198 -14 -272 -19 -74 -5 -144 -14 -155 -21 -12 -6 -101 -15 -199 -21 -97
-5 -188 -12 -202 -15 -71 -18 -417 -27 -515 -14 -44 6 -174 12 -290 14 -115 2
-238 7 -272 11 -61 7 -63 6 -94 -24 -23 -24 -30 -37 -25 -54 4 -12 9 -38 11
-57 2 -19 8 -64 14 -100 14 -85 19 -198 32 -655 5 -209 15 -423 20 -475 6 -52
14 -144 19 -205 5 -60 14 -171 20 -245 6 -74 15 -184 20 -245 5 -60 17 -166
28 -235 11 -69 22 -141 25 -160 3 -19 18 -93 35 -165 28 -123 43 -234 57 -425
4 -47 2 -191 -4 -321 -10 -207 -9 -246 5 -314 12 -59 13 -79 4 -85 -6 -4 -57
-10 -113 -13 -63 -3 -174 -21 -287 -46 -175 -38 -319 -57 -490 -64 -126 -6
-210 -39 -210 -84 0 -7 10 -23 21 -34 18 -18 28 -20 72 -15 28 4 58 11 68 17
10 5 54 9 98 9 130 0 274 19 471 61 102 22 220 43 262 46 75 6 79 5 103 -21
32 -34 60 -33 96 5 l30 32 232 -2 c128 0 259 -5 292 -11 33 -5 88 -10 122 -10
34 0 74 -5 89 -10 14 -6 89 -15 165 -20 77 -5 143 -11 147 -14 4 -2 77 -9 162
-15 156 -11 229 -22 330 -48 144 -38 191 -38 210 -3 23 43 -8 77 -85 91 -22 4
-65 14 -95 22 -99 26 -173 37 -323 47 -81 6 -171 15 -199 20 -28 6 -80 10
-117 11 -36 0 -88 4 -116 10 -132 25 -608 53 -732 42 -82 -6 -71 -19 -97 110
-11 54 -12 108 -4 275 13 283 -1 546 -39 717 -17 78 -34 165 -58 300 -33 192
-44 274 -50 380 -3 61 -12 175 -20 255 -23 241 -23 275 2 302 11 13 47 81 79
152 63 141 100 194 190 273 111 98 139 120 224 179 103 71 421 309 473 356 21
18 68 61 105 95 37 34 86 76 109 95 23 18 70 65 104 103 49 55 70 71 98 77 20
3 54 11 76 17 22 6 84 11 138 11 54 0 106 4 116 10 10 5 121 12 247 15 126 3
290 10 364 15 74 6 376 12 671 14 l536 3 12 -33 c20 -55 41 -247 39 -356 -1
-56 0 -160 2 -170 1 -7 -2 -23 -5 -35 -8 -23 24 -63 50 -63 26 0 58 40 50 63
-3 12 -6 27 -5 32 9 72 10 137 2 151 -7 12 -5 28 5 53 17 39 15 84 -11 266
-30 211 -35 220 -131 209 -71 -9 -1044 -9 -1095 -1 -21 3 -51 -1 -75 -10z
m-1196 -220 c-6 -10 -47 -47 -90 -83 -43 -36 -79 -68 -79 -71 0 -4 -24 -25
-53 -47 -29 -22 -67 -53 -83 -69 -16 -16 -78 -66 -139 -111 -60 -46 -121 -91
-135 -102 -14 -10 -65 -48 -115 -84 -49 -35 -112 -82 -139 -103 -27 -21 -63
-48 -80 -59 -94 -65 -189 -179 -254 -307 l-49 -98 -7 208 c-22 657 -27 783
-36 828 -5 28 -9 62 -9 76 l-1 26 118 -5 c97 -4 215 -5 292 -2 8 1 38 -3 67
-9 69 -13 491 -13 573 0 113 18 174 26 203 28 24 1 26 -1 16 -16z"/>
<path d="M5015 3621 c-47 -19 -57 -25 -242 -140 -29 -18 -66 -49 -83 -69 -17
-21 -39 -46 -49 -57 -28 -30 -66 -104 -81 -155 -7 -25 -21 -67 -31 -94 -29
-76 -27 -271 5 -347 65 -160 318 -386 434 -387 78 -1 88 -8 110 -75 28 -87 33
-174 22 -382 -5 -99 -14 -263 -19 -365 -5 -102 -13 -193 -16 -203 -18 -44 23
-95 65 -82 40 13 51 58 60 243 5 98 14 267 20 377 12 215 6 356 -16 420 -18
54 -18 55 14 55 44 0 215 40 239 56 12 8 33 14 45 14 31 0 131 65 187 121 9
10 27 33 41 54 14 20 36 50 50 68 19 23 26 47 31 101 4 39 10 96 14 126 10 75
-25 256 -65 341 -58 122 -163 243 -246 283 -21 10 -52 25 -67 32 -59 29 -174
64 -242 74 -93 13 -132 11 -180 -9z m265 -128 c253 -85 365 -212 415 -466 13
-71 15 -98 6 -132 -6 -24 -11 -63 -11 -85 0 -27 -7 -51 -20 -67 -11 -14 -20
-31 -20 -37 0 -10 -25 -37 -93 -102 -45 -42 -157 -91 -266 -115 -163 -36 -323
-18 -417 46 -78 54 -187 175 -223 247 -28 55 -31 71 -31 153 0 67 5 106 19
141 10 27 25 69 32 94 21 71 117 188 196 237 83 52 158 94 198 109 41 16 126
7 215 -23z"/>
<path d="M4898 3160 c-57 -31 -60 -77 -6 -114 33 -23 113 -21 138 4 23 23 24
35 9 79 -19 54 -74 66 -141 31z"/>
<path d="M5411 3130 c-45 -7 -71 -30 -71 -62 0 -25 44 -68 68 -68 11 0 33 -3
50 -6 24 -5 36 -1 56 19 14 15 26 36 26 47 0 24 -52 81 -72 79 -7 -1 -33 -5
-57 -9z"/>
<path d="M5028 2785 c-32 -18 -43 -47 -28 -75 13 -24 1 -21 125 -25 55 -2 122
-8 148 -14 70 -16 110 14 92 69 -9 28 -30 37 -118 49 -106 15 -187 13 -219 -4z"/>
</g>
</svg>
